# Blender 3.4.1
# www.blender.org
mtllib paper_corner.mtl
o Cube.003
v -0.041964 -0.000200 0.072382
v -0.041964 0.000200 0.072382
v 0.198923 0.000200 -0.000069
v -0.063754 0.000200 -0.000069
v -0.063754 -0.000200 -0.000069
v 0.198923 -0.000200 -0.000069
vn -0.0000 1.0000 -0.0000
vn -0.9576 -0.0000 0.2880
vn 0.2880 -0.0000 0.9576
vn -0.0000 -1.0000 -0.0000
vn -0.0000 -0.0000 -1.0000
vt 0.125000 0.500000
vt 0.375000 0.250000
vt 0.375000 1.000000
vt 0.375000 0.000000
vt 0.125000 0.750000
vt 0.375000 0.950090
vt 0.174910 0.750000
vt 0.375000 0.486268
vt 0.385614 1.000000
vt 0.385614 0.000000
vt 0.375000 0.276836
vt 0.385614 0.250000
vt 0.375000 0.276836
vt 0.174910 0.500000
vt 0.375000 0.299910
vt 0.375000 0.486268
s 0
usemtl Material.001
f 4/9/1 2/3/1 3/6/1
f 1/2/2 2/4/2 4/10/2 5/12/2
f 3/7/3 2/5/3 1/1/3 6/14/3
f 6/15/4 1/2/4 5/12/4
f 4/11/5 3/8/5 6/16/5 5/13/5
